<svg id="SvgjsSvg1001" width="288" height="288" xmlns="http://www.w3.org/2000/svg" version="1.1" xmlns:xlink="http://www.w3.org/1999/xlink" xmlns:svgjs="http://svgjs.com/svgjs"><defs id="SvgjsDefs1002"></defs><g id="SvgjsG1008"><svg xmlns="http://www.w3.org/2000/svg" viewBox="0 0 50 50" width="288" height="288"><path fill="#c3c7c8" d="M10.289 32.996a1 1 0 0 0-1 1v6.133a1 1 0 0 0 1 1h28a1 1 0 0 0 1-1v-6.133a1 1 0 1 0-2 0v5.133h-26v-5.133a1 1 0 0 0-1-1z" class="svgShape color231f20-0 selectable"></path><path fill="#c3c7c8" d="M24.333 34.996a1 1 0 0 0 1-1v-21.51l6.343 6.127a.996.996 0 0 0 1.413-.024 1 1 0 0 0-.024-1.414l-8.023-7.751-.002-.002-.013-.012c-.036-.035-.081-.05-.12-.078-.064-.046-.123-.097-.196-.127a.997.997 0 0 0-.357-.072c-.007 0-.014-.004-.021-.004s-.014.004-.021.004a1.001 1.001 0 0 0-.357.072c-.073.03-.132.081-.196.126-.039.029-.084.044-.12.079l-.012.011-.002.002-8.023 7.751a1 1 0 0 0 1.389 1.438l6.343-6.127v21.51a.998.998 0 0 0 .999 1.001z" class="svgShape color231f20-1 selectable"></path></svg></g></svg>